<svg xmlns="http://www.w3.org/2000/svg" width="1728" height="1728" viewBox="0 0 1728 1728"><path d="M854.4 316.8c-307.508 0-556.8 249.293-556.8 556.8 0 307.508 249.292 556.8 556.8 556.8 307.507 0 556.8-249.292 556.8-556.8 0-307.507-249.293-556.8-556.8-556.8zm0 1022.132c-256.992 0-465.332-208.34-465.332-465.332 0-256.99 208.34-465.33 465.332-465.33s465.33 208.34 465.33 465.33c0 256.992-208.338 465.332-465.33 465.332zm210.163-479.81c17.837-25.17 28.474-56.677 28.474-90.91 0-82.37-61.44-149.147-137.203-149.147h-21.87V503.73c0-6.565-5.375-11.923-11.922-11.923H882.24c-6.566 0-11.924 5.376-11.924 11.924v115.335h-63.63V503.73c0-6.565-5.374-11.923-11.922-11.923H755c-6.565 0-11.923 5.376-11.923 11.924v115.335h-131.25c-6.585 0-11.923 5.338-11.923 11.923v40.167c0 6.144 4.59 11.462 10.713 12.02 44.813 4.108 68.832 34.176 68.832 71.116v246.587c0 33.234-17.147 59.615-54.624 63.226-5.318.52-9.734 4.3-10.733 9.562l-7.603 40.55c-1.363 7.24 4.204 13.94 11.577 13.94H743.04v115.334c0 6.565 5.376 11.922 11.923 11.922h39.764c6.566 0 11.923-5.376 11.923-11.923v-115.336h63.63v115.335c0 6.565 5.375 11.922 11.922 11.922h39.764c6.566 0 11.923-5.376 11.923-11.923v-115.336h53.683c75.782 0 137.203-65.875 137.203-147.148.076-50.728-23.83-95.425-60.213-121.883zM806.67 714.51h97.438c36.25 0 65.626 29.375 65.626 65.625s-29.376 65.625-65.626 65.625h-97.44V714.51zm129.253 322.156H806.67V905.414h129.253c36.25 0 65.626 29.376 65.626 65.626s-29.377 65.626-65.627 65.626z"/></svg>